<?xml version="1.0" standalone="no"?>
<!DOCTYPE svg PUBLIC "-//W3C//DTD SVG 20010904//EN"
 "http://www.w3.org/TR/2001/REC-SVG-20010904/DTD/svg10.dtd">
<svg version="1.0" xmlns="http://www.w3.org/2000/svg"
 width="1115.000000pt" height="542.000000pt" viewBox="0 0 1115.000000 542.000000"
 preserveAspectRatio="xMidYMid meet">
<metadata>
Created by potrace 1.16, written by Peter Selinger 2001-2019
</metadata>
<g transform="translate(0.000000,542.000000) scale(0.100000,-0.100000)"
fill="#000000" stroke="none">
<path d="M0 2710 l0 -2710 5575 0 5575 0 0 2710 0 2710 -5575 0 -5575 0 0
-2710z m3373 -870 c-14 -29 -11 -49 57 -358 84 -385 83 -384 122 -428 l30 -34
-191 0 c-105 0 -191 4 -191 9 0 5 7 14 15 21 20 17 18 56 -9 175 l-23 100
-108 3 -108 3 6 -88 c6 -105 24 -151 74 -192 l38 -31 -138 0 c-75 0 -137 2
-137 5 0 2 16 33 35 67 19 35 46 94 60 132 29 77 145 544 145 584 0 14 -7 34
-17 44 -16 17 -10 18 170 18 l185 0 -15 -30z m3407 -220 l0 -50 55 0 c48 0 55
-2 55 -20 0 -18 -7 -20 -55 -20 l-55 0 0 -185 c0 -174 1 -186 21 -206 15 -15
28 -19 46 -14 l25 6 -21 -30 c-12 -16 -40 -38 -64 -50 -92 -44 -180 -36 -245
24 l-37 33 -5 199 c-5 200 -11 231 -46 251 -11 6 3 11 50 16 84 8 182 39 226
70 19 14 38 25 43 26 4 0 7 -22 7 -50z m-2383 -5 c28 -8 62 -26 74 -39 l23
-24 29 20 c128 91 330 44 391 -92 17 -38 21 -74 25 -228 6 -178 7 -184 30
-203 23 -19 23 -19 -104 -19 -143 0 -175 11 -196 64 -7 18 -14 110 -17 221 -2
105 -8 198 -14 208 -6 11 -18 17 -31 15 -36 -5 -48 -77 -45 -280 3 -171 4
-177 27 -202 l24 -26 -127 0 c-70 0 -136 5 -147 10 -44 24 -53 64 -59 278 -5
173 -9 205 -23 220 -21 21 -48 7 -58 -29 -4 -13 -7 -111 -8 -217 -1 -197 6
-241 41 -255 7 -3 -74 -6 -180 -6 l-193 -1 23 31 c21 29 23 42 26 202 4 203
-2 251 -32 282 l-23 23 106 7 c58 4 133 16 166 26 33 10 61 19 63 19 1 0 2 -9
2 -20 0 -22 10 -26 27 -9 14 14 82 38 109 39 11 0 43 -7 71 -15z m1008 -10
c109 -29 196 -104 231 -202 33 -94 6 -192 -74 -273 -79 -78 -146 -103 -263
-98 -107 5 -178 37 -242 108 -44 48 -77 126 -77 180 0 42 26 118 55 160 52 75
175 137 275 139 20 1 63 -6 95 -14z m700 0 c66 -17 149 -69 182 -113 46 -62
55 -101 60 -257 4 -127 8 -154 24 -177 l20 -28 -136 0 c-146 0 -170 6 -186 47
l-10 26 -28 -27 c-15 -15 -51 -36 -80 -46 -131 -50 -261 8 -261 118 0 38 5 50
38 82 22 23 59 45 92 56 157 54 229 116 238 203 4 43 1 53 -21 75 -18 18 -37
26 -60 26 -57 0 -73 -34 -37 -80 26 -34 26 -99 0 -133 -67 -85 -215 -38 -215
68 0 54 26 91 85 124 88 49 194 62 295 36z m1240 0 c66 -17 149 -69 182 -113
46 -62 55 -101 60 -257 4 -127 8 -154 24 -177 l20 -28 -136 0 c-146 0 -170 6
-186 47 l-10 26 -27 -25 c-65 -61 -168 -84 -245 -54 -63 24 -89 55 -95 116 -4
47 -3 52 34 89 24 23 60 46 94 57 157 54 229 116 238 203 4 43 1 53 -21 75
-40 40 -117 32 -117 -12 0 -8 9 -25 20 -39 27 -34 27 -102 0 -136 -67 -85
-215 -38 -215 68 0 54 26 91 85 124 88 49 194 62 295 36z m963 -27 c-32 -34
-62 -90 -139 -261 -118 -262 -116 -257 -92 -257 65 0 209 108 254 189 l19 36
-5 -90 c-3 -49 -8 -107 -11 -127 l-6 -38 -314 0 -314 0 37 38 c28 28 64 97
145 277 98 220 106 240 87 243 -56 9 -207 -106 -251 -191 -11 -22 -21 -37 -23
-35 -2 2 0 48 5 103 5 55 9 112 10 128 l0 27 320 0 320 0 -42 -42z m-4537
-417 c34 -35 37 -68 8 -105 -15 -19 -29 -26 -57 -26 -88 0 -114 106 -37 148
33 18 55 14 86 -17z"/>
<path d="M3072 1735 c-6 -22 -27 -107 -47 -190 -20 -82 -38 -158 -41 -167 -5
-16 4 -18 90 -18 85 0 96 2 95 18 0 9 -19 103 -43 207 -42 186 -43 189 -54
150z"/>
<path d="M5289 1553 c-17 -57 -23 -327 -9 -411 19 -115 48 -118 70 -5 15 77 8
373 -10 421 -16 43 -36 41 -51 -5z"/>
</g>
</svg>
